#!OML:ASF H:\Pregnant\Project 1\Capture day 1\Session 1\femalepreg.ASF
:FULLY-SPECIFIED
:DEGREES
171
root 9.64548 16.5946 6.6118 22.4768 -1.01246 -9.09564
lowerback -8.12665 1.60411 -2.21118
upperback 1.04456 2.35899 0.0720991
thorax 5.55802 1.09356 1.61764
lowerneck -5.83911 -0.69582 7.08933
upperneck 26.294 -2.31554 0.997237
head 9.16572 -0.305541 -1.08804
rclavicle -3.33958e-014 1.90833e-014
rhumerus -37.9232 -4.19901 -68.1911
rradius 62.1858
rwrist -5.62095
rhand -9.54175 -13.0687
rfingers 7.12502
rthumb 16.4249 -42.3933
lclavicle -3.33958e-014 1.90833e-014
lhumerus -25.3699 -11.6548 79.6095
lradius 35.814
lwrist 44.281
lhand -22.2424 -4.44895
lfingers 7.12502
lthumb 4.1747 25.4899
rfemur -99.5577 4.7182 42.8814
rtibia 102.565
rfoot 2.80159 -3.89308
rtoes -8.37561
lfemur -20.6683 -7.92847 -14.1734
ltibia 12.9412
lfoot -4.7974 -2.04861
ltoes -18.3762
172
root 9.63965 16.5851 6.68293 22.4898 -0.609498 -9.081
lowerback -8.32105 1.58258 -2.11143
upperback 0.995997 2.30341 0.452957
thorax 5.6076 1.0629 1.95758
lowerneck -5.95605 -0.864044 7.21581
upperneck 26.3529 -2.5242 0.764474
head 9.1954 -0.409662 -1.20981
rclavicle 2.50469e-014 7.15625e-015
rhumerus -37.9442 -4.63088 -67.6104
rradius 62.1783
rwrist -5.52284
rhand -9.40505 -13.2087
rfingers 7.12502
rthumb 16.5565 -42.5224
lclavicle 2.50469e-014 7.15625e-015
lhumerus -25.9421 -12.5295 80.1561
lradius 35.7176
lwrist 44.4757
lhand -21.8321 -4.25807
lfingers 7.12502
lthumb 4.57091 25.6726
rfemur -99.0265 3.98144 42.9247
rtibia 100.882
rfoot 2.80746 -3.3515
rtoes -8.18599
lfemur -20.8271 -8.09631 -14.0851
ltibia 13.5241
lfoot -5.14622 -2.29625
ltoes -18.7299
173
root 9.63263 16.5751 6.75528 22.5158 -0.206522 -9.04391
lowerback -8.54355 1.55054 -2.0449
upperback 0.939293 2.23695 0.832316
thorax 5.66464 1.02581 2.31456
lowerneck -6.05726 -1.02986 7.32184
upperneck 26.413 -2.72933 0.548639
head 9.22231 -0.512556 -1.32212
rclavicle 1.94809e-014 3.49861e-014
rhumerus -37.9759 -5.05006 -67.0326
rradius 62.165
rwrist -5.41663
rhand -9.28903 -13.357
rfingers 7.12502
rthumb 16.6682 -42.6613
lclavicle 1.94809e-014 3.49861e-014
lhumerus -26.5229 -13.3685 80.6929
lradius 35.6265
lwrist 44.6492
lhand -21.4013 -4.10923
lfingers 7.12502
lthumb 4.98684 25.8121
rfemur -98.4256 3.25437 42.9106
rtibia 99.0934
rfoot 2.84418 -2.73305
rtoes -8.01039
lfemur -20.9711 -8.26778 -14.015
ltibia 14.0613
lfoot -5.48476 -2.54702
ltoes -19.0528
174
root 9.62447 16.5644 6.82858 22.5518 0.195893 -8.98662
lowerback -8.77586 1.50814 -2.00893
upperback 0.873834 2.15916 1.21282
thorax 5.71839 0.982302 2.6892
lowerneck -6.17262 -1.18509 7.37835
upperneck 26.4886 -2.92397 0.372471
head 9.25835 -0.610706 -1.41208
rclavicle -1.51076e-014 -1.03368e-014
rhumerus -38.0126 -5.4601 -66.4555
rradius 62.1393
rwrist -5.29234
rhand -9.18255 -13.5085
rfingers 7.12502
rthumb 16.7707 -42.8042
lclavicle -1.51076e-014 -1.03368e-014
lhumerus -27.1064 -14.1488 81.22
lradius 35.5442
lwrist 44.7983
lhand -21.0016 -3.87524
lfingers 7.12502
lthumb 5.37279 26.0366
rfemur -97.7534 2.54237 42.8381
rtibia 97.1956
rfoot 2.92176 -2.03686
rtoes -7.84944
lfemur -21.091 -8.44305 -13.9619
ltibia 14.5424
lfoot -5.7969 -2.79234
ltoes -19.358
175
root 9.61491 16.5532 6.90283 22.598 0.603259 -8.90558
lowerback -9.02908 1.46034 -1.99616
upperback 0.808339 2.07705 1.58021
thorax 5.78494 0.935905 3.0641
lowerneck -6.30042 -1.3372 7.41445
upperneck 26.5684 -3.12114 0.231103
head 9.29875 -0.708223 -1.48737
rclavicle -3.91606e-014 -3.18055e-014
rhumerus -38.0581 -5.90158 -65.8913
rradius 62.1023
rwrist -5.1404
rhand -9.10353 -13.6387
rfingers 7.12502
rthumb 16.8468 -42.9279
lclavicle -3.91606e-014 -3.18055e-014
lhumerus -27.6652 -14.8884 81.7138
lradius 35.4694
lwrist 44.927
lhand -20.6271 -3.57774
lfingers 7.12502
lthumb 5.7344 26.3247
rfemur -97.0125 1.84554 42.7026
rtibia 95.188
rfoot 3.03607 -1.2728
rtoes -7.73831
lfemur -21.1868 -8.6258 -13.9271
ltibia 14.9654
lfoot -6.07924 -3.03055
ltoes -19.6147
176
root 9.60402 16.5413 6.97801 22.655 1.01485 -8.80096
lowerback -9.29558 1.40434 -2.01048
upperback 0.739513 1.98697 1.94045
thorax 5.85653 0.884744 3.44694
lowerneck -6.43397 -1.48409 7.42383
upperneck 26.6446 -3.31345 0.114388
head 9.33971 -0.803604 -1.54956
rclavicle 1.76918e-014 5.56597e-015
rhumerus -38.1102 -6.36494 -65.332
rradius 62.0494
rwrist -4.95865
rhand -9.03097 -13.7557
rfingers 7.12502
rthumb 16.9166 -43.0389
lclavicle 1.76918e-014 5.56597e-015
lhumerus -28.218 -15.5548 82.1742
lradius 35.414
lwrist 44.998
lhand -20.2472 -3.24263
lfingers 7.12502
lthumb 6.10116 26.6495
rfemur -96.2024 1.16906 42.5022
rtibia 93.0711
rfoot 3.20223 -0.45985
rtoes -7.64172
lfemur -21.2602 -8.81144 -13.912
ltibia 15.3315
lfoot -6.33905 -3.26578
ltoes -19.8449
177
root 9.59201 16.5284 7.05369 22.7215 1.43256 -8.67227
lowerback -9.56674 1.34008 -2.04633
upperback 0.665473 1.88847 2.29062
thorax 5.9268 0.828968 3.83111
lowerneck -6.57087 -1.62258 7.41124
upperneck 26.72 -3.49583 0.0178274
head 9.38204 -0.894421 -1.60053
rclavicle 2.38542e-015 2.38542e-015
rhumerus -38.1737 -6.85644 -64.7784
rradius 61.9858
rwrist -4.75207
rhand -8.9423 -13.8701
rfingers 7.12502
rthumb 17.002 -43.146
lclavicle 2.38542e-015 2.38542e-015
lhumerus -28.7584 -16.1423 82.5928
lradius 35.3753
lwrist 45.0162
lhand -19.8802 -2.84377
lfingers 7.12502
lthumb 6.45543 27.0378
rfemur -95.3247 0.516317 42.2348
rtibia 90.8489
rfoot 3.43486 0.362379
rtoes -7.54178
lfemur -21.3126 -8.99787 -13.9179
ltibia 15.6418
lfoot -6.5786 -3.50402
ltoes -20.0503
